<svg width="10" height="12" viewBox="0 0 10 12" fill="none" xmlns="http://www.w3.org/2000/svg">
<path d="M8.55266 2.05494C7.82439 0.798129 6.53082 0.030293 5.09235 0.000949219C5.03094 -0.000316406 4.96914 -0.000316406 4.90771 0.000949219C3.46925 0.030293 2.17569 0.798129 1.44739 2.05494C0.702972 3.3396 0.682605 4.88272 1.3929 6.18282L4.3686 11.6294C4.36993 11.6318 4.37127 11.6342 4.37265 11.6366C4.50357 11.8642 4.73811 12 5.00007 12C5.26201 12 5.49655 11.8641 5.62745 11.6366C5.62883 11.6342 5.63017 11.6318 5.6315 11.6294L8.6072 6.18282C9.31745 4.88272 9.29708 3.3396 8.55266 2.05494ZM5.00003 5.43751C4.06954 5.43751 3.31253 4.6805 3.31253 3.75001C3.31253 2.81952 4.06954 2.06251 5.00003 2.06251C5.93052 2.06251 6.68753 2.81952 6.68753 3.75001C6.68753 4.6805 5.93054 5.43751 5.00003 5.43751Z" fill="#01B0C0"/>
</svg>
