<svg width="207" height="47" viewBox="0 0 207 47" fill="none" xmlns="http://www.w3.org/2000/svg">
<path d="M103.185 11.986V25.3041H100.959V15.0349L97.2558 25.3041H95.3479L91.5507 15.0349V25.3041H89.3435V11.986H92.6169L96.3392 22.4048L99.9306 11.986H103.185Z" fill="#01B0C0"/>
<path d="M114.328 22.2925C114.091 23.34 113.573 24.1568 112.775 24.7429C111.989 25.329 111.048 25.622 109.95 25.622C108.491 25.622 107.332 25.1544 106.471 24.2192C105.623 23.2714 105.199 22.0618 105.199 20.5904C105.199 19.0815 105.636 17.8345 106.509 16.8493C107.394 15.8642 108.516 15.3716 109.876 15.3716C111.285 15.3716 112.401 15.8579 113.224 16.8306C114.047 17.7908 114.458 19.1064 114.458 20.7774V21.0019H107.332C107.357 21.9745 107.6 22.729 108.061 23.2652C108.523 23.7889 109.165 24.0508 109.988 24.0508C110.574 24.0508 111.048 23.9136 111.409 23.6393C111.784 23.3525 112.077 22.9036 112.289 22.2925H114.328ZM112.326 19.5803C112.264 18.7697 112.008 18.1337 111.559 17.6723C111.123 17.1985 110.555 16.9615 109.857 16.9615C109.159 16.9615 108.591 17.186 108.155 17.6349C107.731 18.0839 107.469 18.7323 107.369 19.5803H112.326Z" fill="#01B0C0"/>
<path d="M125.774 28.3717H123.754V25.3041H116.889V28.3717H114.869V23.6206H116.085C116.845 21.8374 117.226 19.5429 117.226 16.7371V15.6522H124.483V23.6206H125.774V28.3717ZM122.388 23.6206V17.2982H119.265V17.9529C119.265 18.963 119.159 20.023 118.947 21.1328C118.735 22.2302 118.51 23.0594 118.273 23.6206H122.388Z" fill="#01B0C0"/>
<path d="M132.332 19.1688V21.1515H126.852V19.1688H132.332Z" fill="#01B0C0"/>
<path d="M143.1 21.6565C142.951 22.8412 142.477 23.7889 141.679 24.4997C140.881 25.1981 139.877 25.5472 138.667 25.5472C137.221 25.5472 136.067 25.0921 135.207 24.1817C134.346 23.259 133.916 22.0556 133.916 20.5716C133.916 18.9755 134.346 17.7098 135.207 16.7745C136.08 15.8268 137.252 15.3529 138.723 15.3529C139.958 15.3529 140.949 15.6646 141.697 16.2882C142.458 16.9117 142.901 17.7783 143.026 18.8882H140.912C140.787 18.2771 140.538 17.8095 140.164 17.4853C139.79 17.1611 139.316 16.999 138.742 16.999C137.919 16.999 137.271 17.3107 136.797 17.9342C136.323 18.5452 136.086 19.387 136.086 20.4594C136.086 21.5318 136.31 22.3673 136.759 22.9659C137.221 23.5645 137.857 23.8638 138.667 23.8638C139.303 23.8638 139.821 23.6767 140.22 23.3026C140.631 22.916 140.893 22.3673 141.005 21.6565H143.1Z" fill="#01B0C0"/>
<path d="M146.872 25.3041H144.74V15.6522H153.232V25.3041H151.1V17.3356H146.872V25.3041Z" fill="#01B0C0"/>
<path d="M157.52 15.6522V16.9428C158.168 15.8953 159.216 15.3716 160.662 15.3716C161.997 15.3716 163.063 15.8392 163.861 16.7745C164.659 17.7098 165.058 18.9568 165.058 20.5155C165.058 22.0369 164.665 23.259 163.88 24.1817C163.106 25.0921 162.071 25.5472 160.775 25.5472C159.403 25.5472 158.355 25.0422 157.632 24.0321V28.8768H155.518V15.6522H157.52ZM160.232 17.0925C159.397 17.0925 158.742 17.3918 158.268 17.9903C157.794 18.5889 157.557 19.4182 157.557 20.4781C157.557 21.5256 157.794 22.3486 158.268 22.9472C158.754 23.5458 159.422 23.8451 160.27 23.8451C161.08 23.8451 161.722 23.5458 162.196 22.9472C162.67 22.3486 162.907 21.5381 162.907 20.5155C162.907 19.468 162.664 18.6388 162.177 18.0277C161.704 17.4042 161.055 17.0925 160.232 17.0925Z" fill="#01B0C0"/>
<path d="M166.822 18.6263C167.047 16.444 168.456 15.3529 171.05 15.3529C172.259 15.3529 173.22 15.5898 173.93 16.0637C174.654 16.5376 175.015 17.2733 175.015 18.2709V23.1717C175.015 23.446 175.047 23.6331 175.109 23.7328C175.184 23.8326 175.321 23.8825 175.52 23.8825C175.67 23.8825 175.832 23.87 176.007 23.8451V25.3415C175.458 25.4786 174.997 25.5472 174.623 25.5472C173.712 25.5472 173.188 25.1607 173.051 24.3875C172.241 25.1607 171.112 25.5472 169.666 25.5472C168.668 25.5472 167.876 25.2916 167.29 24.7803C166.704 24.2566 166.411 23.552 166.411 22.6666C166.411 22.3923 166.442 22.1366 166.504 21.8997C166.567 21.6628 166.635 21.457 166.71 21.2824C166.798 21.1079 166.928 20.9457 167.103 20.7961C167.29 20.6465 167.44 20.5218 167.552 20.422C167.677 20.3222 167.87 20.2287 168.132 20.1414C168.406 20.0541 168.606 19.9918 168.73 19.9544C168.868 19.9045 169.098 19.8546 169.422 19.8047C169.747 19.7549 169.959 19.7237 170.058 19.7112C170.171 19.6863 170.395 19.6551 170.732 19.6177C171.493 19.5179 172.01 19.4369 172.284 19.3745C172.559 19.2997 172.746 19.1937 172.846 19.0565C172.933 18.9568 172.976 18.7261 172.976 18.3644C172.976 17.3918 172.316 16.9054 170.994 16.9054C170.295 16.9054 169.784 17.0364 169.46 17.2982C169.136 17.5601 168.93 18.0028 168.843 18.6263H166.822ZM172.958 20.4594C172.796 20.5467 172.609 20.6278 172.397 20.7026C172.185 20.7649 172.01 20.8086 171.873 20.8335C171.748 20.846 171.542 20.8709 171.256 20.9083C170.981 20.9457 170.8 20.9707 170.713 20.9832C170.451 21.0206 170.246 21.058 170.096 21.0954C169.946 21.1203 169.759 21.1702 169.535 21.245C169.323 21.3199 169.154 21.4134 169.03 21.5256C168.917 21.6254 168.818 21.7688 168.73 21.9558C168.643 22.1304 168.599 22.3424 168.599 22.5918C168.599 23.0532 168.749 23.4086 169.048 23.658C169.36 23.9074 169.79 24.0321 170.339 24.0321C171.287 24.0321 172.016 23.7765 172.528 23.2652C172.814 22.9784 172.958 22.4235 172.958 21.6004V20.4594Z" fill="#01B0C0"/>
<path d="M185.933 22.5731C185.933 23.446 185.621 24.1194 184.998 24.5933C184.387 25.0671 183.514 25.3041 182.379 25.3041H177.31V15.6522H182.641C183.539 15.6522 184.237 15.8579 184.736 16.2695C185.247 16.681 185.503 17.2608 185.503 18.009C185.503 18.5203 185.39 18.9318 185.166 19.2436C184.942 19.5553 184.592 19.8234 184.118 20.0479V20.0853C185.328 20.3971 185.933 21.2263 185.933 22.5731ZM182.379 21.0393H179.442V23.6954H182.379C183.339 23.6954 183.819 23.259 183.819 22.3861C183.819 21.9621 183.695 21.6316 183.445 21.3947C183.196 21.1577 182.84 21.0393 182.379 21.0393ZM182.098 17.2608H179.442V19.4867H182.154C182.977 19.4867 183.389 19.1002 183.389 18.327C183.389 17.6162 182.959 17.2608 182.098 17.2608Z" fill="#01B0C0"/>
<path d="M196.72 25.3041H194.138L191.108 20.9832L189.836 22.3112V25.3041H187.704V15.6522H189.836V19.9357L193.689 15.6522H196.289L192.53 19.5242L196.72 25.3041Z" fill="#01B0C0"/>
<path d="M197.657 18.6263C197.881 16.444 199.29 15.3529 201.884 15.3529C203.094 15.3529 204.054 15.5898 204.765 16.0637C205.488 16.5376 205.85 17.2733 205.85 18.2709V23.1717C205.85 23.446 205.881 23.6331 205.943 23.7328C206.018 23.8326 206.155 23.8825 206.355 23.8825C206.504 23.8825 206.666 23.87 206.841 23.8451V25.3415C206.292 25.4786 205.831 25.5472 205.457 25.5472C204.547 25.5472 204.023 25.1607 203.886 24.3875C203.075 25.1607 201.947 25.5472 200.5 25.5472C199.502 25.5472 198.711 25.2916 198.124 24.7803C197.538 24.2566 197.245 23.552 197.245 22.6666C197.245 22.3923 197.276 22.1366 197.339 21.8997C197.401 21.6628 197.47 21.457 197.545 21.2824C197.632 21.1079 197.763 20.9457 197.937 20.7961C198.124 20.6465 198.274 20.5218 198.386 20.422C198.511 20.3222 198.704 20.2287 198.966 20.1414C199.241 20.0541 199.44 19.9918 199.565 19.9544C199.702 19.9045 199.933 19.8546 200.257 19.8047C200.581 19.7549 200.793 19.7237 200.893 19.7112C201.005 19.6863 201.229 19.6551 201.566 19.6177C202.327 19.5179 202.844 19.4369 203.119 19.3745C203.393 19.2997 203.58 19.1937 203.68 19.0565C203.767 18.9568 203.811 18.7261 203.811 18.3644C203.811 17.3918 203.15 16.9054 201.828 16.9054C201.13 16.9054 200.618 17.0364 200.294 17.2982C199.97 17.5601 199.764 18.0028 199.677 18.6263H197.657ZM203.792 20.4594C203.63 20.5467 203.443 20.6278 203.231 20.7026C203.019 20.7649 202.844 20.8086 202.707 20.8335C202.583 20.846 202.377 20.8709 202.09 20.9083C201.816 20.9457 201.635 20.9707 201.547 20.9832C201.286 21.0206 201.08 21.058 200.93 21.0954C200.781 21.1203 200.594 21.1702 200.369 21.245C200.157 21.3199 199.989 21.4134 199.864 21.5256C199.752 21.6254 199.652 21.7688 199.565 21.9558C199.477 22.1304 199.434 22.3424 199.434 22.5918C199.434 23.0532 199.583 23.4086 199.883 23.658C200.194 23.9074 200.625 24.0321 201.173 24.0321C202.121 24.0321 202.851 23.7765 203.362 23.2652C203.649 22.9784 203.792 22.4235 203.792 21.6004V20.4594Z" fill="#01B0C0"/>
<path d="M95.2849 41.2035H94.331V36.6357H94.2973L92.5802 41.2035H91.7048L89.9876 36.6357H89.954V41.2035H89V35.4123H90.3692L92.1312 40.1036H92.1537L93.9157 35.4123H95.2849V41.2035Z" fill="#595959"/>
<path d="M101.644 39.3741C101.352 40.7209 100.51 41.3943 99.1184 41.3943C98.2655 41.3943 97.5958 41.1287 97.1095 40.5974C96.6306 40.0662 96.3912 39.3292 96.3912 38.3865C96.3912 37.4512 96.6381 36.6955 97.1319 36.1194C97.6332 35.5358 98.2842 35.244 99.0848 35.244C99.9751 35.244 100.634 35.547 101.06 36.1531C101.494 36.7516 101.711 37.5111 101.711 38.4314V38.566H97.3564L97.3452 38.6334C97.3452 39.2469 97.506 39.7295 97.8278 40.0812C98.1495 40.4328 98.5909 40.6086 99.1521 40.6086C99.5711 40.6086 99.9003 40.5114 100.14 40.3168C100.387 40.1223 100.577 39.8081 100.712 39.3741H101.644ZM100.723 37.7916C100.678 37.238 100.51 36.8078 100.218 36.501C99.9265 36.1867 99.5412 36.0296 99.0623 36.0296C98.5984 36.0296 98.2131 36.1867 97.9063 36.501C97.5996 36.8152 97.4163 37.2455 97.3564 37.7916H100.723Z" fill="#595959"/>
<path d="M108.137 43.0441H107.227V41.2035H102.806V43.0441H101.896V40.3617H102.525C102.705 40.0176 102.869 39.4863 103.019 38.7681C103.176 38.0423 103.254 37.3352 103.254 36.6469V35.4123H107.385V40.3617H108.137V43.0441ZM106.431 40.3617V36.2541H104.186V36.7367C104.186 37.4175 104.115 38.1096 103.973 38.813C103.838 39.5088 103.685 40.025 103.513 40.3617H106.431Z" fill="#595959"/>
<path d="M110.193 41.2035H108.97V35.4123H109.923V40.1373H109.946L112.55 35.4123H113.773V41.2035H112.819V36.4785H112.797L110.193 41.2035Z" fill="#595959"/>
<path d="M119.807 43.0441V41.2035H115.206V35.4123H116.16V40.3617H119.01V35.4123H119.964V40.3617H120.716V43.0441H119.807Z" fill="#595959"/>
<path d="M122.83 41.2035H121.606V35.4123H122.56V40.1373H122.583L125.187 35.4123H126.41V41.2035H125.456V36.4785H125.434L122.83 41.2035Z" fill="#595959"/>
<path d="M128.797 41.2035H127.843V35.4123H128.797V37.7131H131.692V35.4123H132.646V41.2035H131.692V38.5548H128.797V41.2035Z" fill="#595959"/>
<path d="M139.062 39.0935C138.98 39.7894 138.714 40.343 138.265 40.7545C137.824 41.1661 137.248 41.3718 136.537 41.3718C135.662 41.3718 134.984 41.1025 134.506 40.5638C134.027 40.0176 133.787 39.2918 133.787 38.3865C133.787 37.4213 134.038 36.6581 134.539 36.097C135.04 35.5283 135.718 35.244 136.571 35.244C137.281 35.244 137.85 35.4236 138.276 35.7827C138.703 36.1344 138.954 36.6394 139.028 37.2978H138.041C137.869 36.4598 137.382 36.0408 136.582 36.0408C136.028 36.0408 135.59 36.2466 135.269 36.6581C134.947 37.0621 134.786 37.6121 134.786 38.3079C134.786 39.0112 134.939 39.5649 135.246 39.9689C135.553 40.373 135.976 40.575 136.514 40.575C136.948 40.575 137.3 40.4478 137.569 40.1934C137.846 39.939 138.022 39.5724 138.097 39.0935H139.062Z" fill="#595959"/>
<path d="M145.292 41.2035H144.08L141.97 38.3528L141.061 39.2394V41.2035H140.107V35.4123H141.061V38.1732L143.71 35.4123H144.989L142.655 37.6906L145.292 41.2035Z" fill="#595959"/>
<path d="M147.15 41.2035H145.927V35.4123H146.881V40.1373H146.903L149.507 35.4123H150.73V41.2035H149.776V36.4785H149.754L147.15 41.2035Z" fill="#595959"/>
<path d="M156.26 33.2126C156.185 33.684 156.001 34.0618 155.71 34.3462C155.425 34.623 155.048 34.7614 154.576 34.7614C154.12 34.7614 153.734 34.6192 153.42 34.3349C153.113 34.0431 152.93 33.669 152.87 33.2126H153.443C153.615 33.7962 153.989 34.088 154.565 34.088C155.119 34.088 155.493 33.7962 155.687 33.2126H156.26ZM153.386 41.2035H152.163V35.4123H153.117V40.1373H153.14L155.743 35.4123H156.967V41.2035H156.013V36.4785H155.99L153.386 41.2035Z" fill="#595959"/>
<path d="M166.125 43.0441V41.2035H161.523V35.4123H162.477V40.3617H165.328V35.4123H166.282V40.3617H167.034V43.0441H166.125Z" fill="#595959"/>
<path d="M172.873 39.3741C172.581 40.7209 171.74 41.3943 170.348 41.3943C169.495 41.3943 168.825 41.1287 168.339 40.5974C167.86 40.0662 167.621 39.3292 167.621 38.3865C167.621 37.4512 167.868 36.6955 168.361 36.1194C168.863 35.5358 169.514 35.244 170.314 35.244C171.205 35.244 171.863 35.547 172.29 36.1531C172.724 36.7516 172.94 37.5111 172.94 38.4314V38.566H168.586L168.575 38.6334C168.575 39.2469 168.736 39.7295 169.057 40.0812C169.379 40.4328 169.82 40.6086 170.382 40.6086C170.801 40.6086 171.13 40.5114 171.369 40.3168C171.616 40.1223 171.807 39.8081 171.942 39.3741H172.873ZM171.953 37.7916C171.908 37.238 171.74 36.8078 171.448 36.501C171.156 36.1867 170.771 36.0296 170.292 36.0296C169.828 36.0296 169.443 36.1867 169.136 36.501C168.829 36.8152 168.646 37.2455 168.586 37.7916H171.953Z" fill="#595959"/>
<path d="M174.906 41.2035H173.952V35.4123H174.906V37.7131H177.801V35.4123H178.755V41.2035H177.801V38.5548H174.906V41.2035Z" fill="#595959"/>
<path d="M184.621 36.2541H182.545V41.2035H181.591V36.2541H179.515V35.4123H184.621V36.2541Z" fill="#595959"/>
<path d="M186.281 35.4123V36.2316C186.7 35.5657 187.351 35.2328 188.234 35.2328C189.042 35.2328 189.682 35.5059 190.153 36.0521C190.632 36.5983 190.871 37.339 190.871 38.2742C190.871 39.2095 190.636 39.9577 190.164 40.5189C189.7 41.0725 189.072 41.3494 188.279 41.3494C187.448 41.3494 186.801 41.0314 186.337 40.3954V43.4369H185.383V35.4123H186.281ZM188.088 36.0296C187.534 36.0296 187.097 36.2316 186.775 36.6357C186.461 37.0322 186.303 37.5821 186.303 38.2855C186.303 38.9888 186.464 39.5425 186.786 39.9465C187.115 40.343 187.56 40.5413 188.122 40.5413C188.668 40.5413 189.098 40.3393 189.412 39.9353C189.727 39.5312 189.884 38.9813 189.884 38.2855C189.884 37.5821 189.723 37.0322 189.401 36.6357C189.087 36.2316 188.649 36.0296 188.088 36.0296Z" fill="#595959"/>
<path d="M20.8582 22.9288C20.8582 20.6056 19.7639 19.444 17.5754 19.444C17.2724 19.444 16.902 19.4777 16.4643 19.5451C16.0266 19.5787 15.7236 19.4609 15.5552 19.1915C15.2859 18.8212 15.7236 18.5686 16.8683 18.434C17.2724 18.3666 17.6764 18.333 18.0804 18.333C20.0333 18.333 21.3632 19.1747 22.0703 20.8582C22.3733 21.5652 22.5248 22.4743 22.5248 23.5854C22.5248 24.6628 22.0534 26.0264 21.1107 27.6762C19.4609 30.6728 16.8683 32.9118 13.3331 34.3932C12.1546 34.8983 10.9257 35.1508 9.64627 35.1508C8.4005 35.1508 7.10423 34.8309 5.75746 34.1912C3.26593 33.0128 1.53196 31.0431 0.555544 28.2823C0.185181 27.2048 0 25.8581 0 24.2419C0 22.5921 0.454536 20.5215 1.36361 18.0299C3.45111 13.1479 6.88538 8.98972 11.6664 5.55544C16.7842 1.85181 21.5652 0 26.0096 0C29.7805 0 32.3057 1.51512 33.5852 4.54536C34.1576 5.85847 34.4437 7.44093 34.4437 9.29274C34.4437 9.89879 34.4101 10.5217 34.3427 11.1614C34.006 14.0906 33.1306 17.4407 31.7165 21.2117C31.4808 21.8514 31.363 22.2891 31.363 22.5248C31.363 22.7268 31.4135 22.8278 31.5145 22.8278C31.6829 22.8615 31.969 22.508 32.3731 21.7672C34.8646 17.2219 37.6087 13.1479 40.6052 9.54526C41.5816 8.36683 42.7601 7.40726 44.1405 6.66653C45.6556 5.85847 47.0024 5.45443 48.1808 5.45443C49.3929 5.45443 50.3357 5.89214 51.0091 6.76754C51.7161 7.64294 52.0696 8.80453 52.0696 10.2523C52.0696 13.6529 50.7397 19.3262 48.0798 27.2722C47.5411 28.8546 47.2044 29.8647 47.0698 30.3024C49.797 26.0264 53.2144 21.3295 57.3221 16.2118C61.4634 11.0604 65.1334 8.0133 68.3319 7.07056C68.9043 6.90222 69.4094 6.81804 69.8471 6.81804C71.1265 6.81804 71.9514 7.45776 72.3218 8.7372C72.4564 9.1749 72.5238 9.67994 72.5238 10.2523C72.5238 11.9695 71.8504 14.1748 70.5036 16.8683C67.7427 22.3901 65.8572 26.784 64.8472 30.0499C63.4667 34.3596 62.7765 37.3056 62.7765 38.8881C62.7765 40.4706 62.928 41.7837 63.231 42.8274C63.8371 44.9149 65.4364 45.9587 68.0289 45.9587C68.1636 45.9587 68.433 45.9418 68.837 45.9082C69.2747 45.9082 69.5104 45.9923 69.544 46.1607C69.6114 46.329 69.4935 46.4805 69.1905 46.6152C68.9212 46.7499 68.635 46.8172 68.3319 46.8172C68.0626 46.8172 67.8437 46.8004 67.6754 46.7667C62.3556 46.228 59.6958 43.5008 59.6958 38.5851C59.6958 36.8006 60.0493 34.7804 60.7563 32.5246C61.4971 30.2351 62.1199 28.4843 62.625 27.2722C63.4331 25.3193 65.1334 21.4979 67.7259 15.8078C68.635 13.6866 69.0895 12.0705 69.0895 10.9594C69.0895 9.84828 68.6181 9.29274 67.6754 9.29274C66.3623 9.29274 64.3253 10.6395 61.5644 13.3331C60.1503 14.7472 58.6183 16.4811 56.9685 18.535C55.3187 20.5551 52.8777 24.1241 49.6455 29.2418C46.4132 34.3259 44.3594 37.9117 43.484 39.9992C42.7096 41.8173 41.6827 42.7264 40.4032 42.7264C39.4941 42.7264 38.9554 42.4065 38.7871 41.7668C38.6861 41.4975 38.6861 41.2786 38.7871 41.1103C38.8881 40.9756 39.208 40.4201 39.7467 39.4436C40.2854 38.4672 40.8409 37.4403 41.4133 36.3629C41.9857 35.2855 42.6591 33.8209 43.4335 31.969C44.2415 30.1172 44.9823 28.2317 45.6556 26.3126C47.2718 21.5652 48.366 16.6832 48.9384 11.6664C49.0057 11.0941 49.0394 10.387 49.0394 9.54526C49.0394 8.66986 48.8037 7.97963 48.3323 7.4746C47.8946 6.96956 47.4233 6.71704 46.9182 6.71704C45.2684 6.71704 43.4503 7.9628 41.4638 10.4543C38.7703 13.7876 36.4302 17.0704 34.4437 20.3026C32.4573 23.5012 30.9253 26.1948 29.8479 28.3833C28.8041 30.5718 27.5752 33.2148 26.1611 36.3124C24.7806 39.3763 24.0399 41.0093 23.9389 41.2113C23.8716 41.4133 23.7537 41.6658 23.5854 41.9688C23.4507 42.2719 23.3329 42.5581 23.2318 42.8274C22.7941 43.8038 21.8514 44.292 20.4036 44.292C19.5619 44.292 19.1074 44.0227 19.04 43.484C19.04 43.383 19.0569 43.2651 19.0905 43.1304C21.3127 39.6962 23.7706 34.4942 26.4641 27.5247C29.8984 18.7033 31.6155 12.2725 31.6155 8.23216C31.6155 3.41744 29.629 1.01008 25.656 1.01008C23.0972 1.01008 19.8649 2.23901 15.9593 4.69687C12.0873 7.15474 8.87187 10.3028 6.313 14.1411C5.30292 15.6562 4.54536 17.1209 4.04032 18.535C3.16492 21.1275 2.72722 23.1813 2.72722 24.6965C2.72722 29.0398 4.175 31.9017 7.07056 33.2822C8.08064 33.7872 9.10756 34.0397 10.1513 34.0397C13.7876 34.0397 16.7673 32.0701 19.0905 28.1307C20.2689 26.1442 20.8582 24.4103 20.8582 22.9288Z" fill="#01B0C0"/>
</svg>
